<svg width="20" height="20" viewBox="0 0 20 20" fill="none" xmlns="http://www.w3.org/2000/svg">
<path d="M15.0002 1.66663H5.00016C4.07969 1.66663 3.3335 2.41282 3.3335 3.33329V16.6666C3.3335 17.5871 4.07969 18.3333 5.00016 18.3333H15.0002C15.9206 18.3333 16.6668 17.5871 16.6668 16.6666V3.33329C16.6668 2.41282 15.9206 1.66663 15.0002 1.66663Z" stroke="#F0882B" stroke-width="1.5" stroke-linecap="round" stroke-linejoin="round"/>
<path d="M7.5 18.3333V15H12.5V18.3333" stroke="#F0882B" stroke-width="1.5" stroke-linecap="round" stroke-linejoin="round"/>
<path d="M6.6665 5H6.67484" stroke="#F0882B" stroke-width="1.5" stroke-linecap="round" stroke-linejoin="round"/>
<path d="M13.3335 5H13.3418" stroke="#F0882B" stroke-width="1.5" stroke-linecap="round" stroke-linejoin="round"/>
<path d="M10 5H10.0083" stroke="#F0882B" stroke-width="1.5" stroke-linecap="round" stroke-linejoin="round"/>
<path d="M10 8.33337H10.0083" stroke="#F0882B" stroke-width="1.5" stroke-linecap="round" stroke-linejoin="round"/>
<path d="M10 11.6666H10.0083" stroke="#F0882B" stroke-width="1.5" stroke-linecap="round" stroke-linejoin="round"/>
<path d="M13.3335 8.33337H13.3418" stroke="#F0882B" stroke-width="1.5" stroke-linecap="round" stroke-linejoin="round"/>
<path d="M13.3335 11.6666H13.3418" stroke="#F0882B" stroke-width="1.5" stroke-linecap="round" stroke-linejoin="round"/>
<path d="M6.6665 8.33337H6.67484" stroke="#F0882B" stroke-width="1.5" stroke-linecap="round" stroke-linejoin="round"/>
<path d="M6.6665 11.6666H6.67484" stroke="#F0882B" stroke-width="1.5" stroke-linecap="round" stroke-linejoin="round"/>
</svg>
